<svg width="32" height="32" viewBox="0 0 32 32" fill="none" xmlns="http://www.w3.org/2000/svg">
<path d="M6.69333 16.9669C6.69333 18.9284 5.89868 20.5197 4.91808 20.5197C3.93747 20.5197 3.14282 18.9295 3.14282 16.9669C3.14282 15.0043 3.93747 13.4141 4.91808 13.4141C5.89868 13.4141 6.69333 15.0043 6.69333 16.9669Z" fill="white" stroke="white" stroke-width="2" stroke-miterlimit="10"/>
<path d="M12.8 15.5152C13.305 15.5152 13.7143 15.081 13.7143 14.5455C13.7143 14.0099 13.305 13.5758 12.8 13.5758C12.2951 13.5758 11.8857 14.0099 11.8857 14.5455C11.8857 15.081 12.2951 15.5152 12.8 15.5152Z" fill="white"/>
<path fill-rule="evenodd" clip-rule="evenodd" d="M28.13 16.3212C28.13 23.2639 22.788 28.892 16.1983 28.892C9.60869 28.892 4.26672 23.2639 4.26672 16.3212C4.26672 9.37851 9.60869 3.75037 16.1983 3.75037C22.788 3.75037 28.13 9.37851 28.13 16.3212ZM13.6464 21.197C14.5059 21.9169 15.466 22.2256 16.4812 22.122L16.4801 22.1208C17.2088 22.0468 17.9656 21.7597 18.7321 21.2585C18.9797 21.0979 19.0273 20.7835 18.8381 20.5797C18.6651 20.3951 18.3602 20.3666 18.1353 20.5136C16.7212 21.4419 15.4811 21.4408 14.3686 20.5079C14.174 20.345 13.8723 20.3404 13.6669 20.5033C13.4323 20.689 13.4247 21.0114 13.6464 21.197ZM11.8009 18.4564C12.5908 18.4564 13.2312 17.1901 13.2312 15.6281C13.2312 14.066 12.5908 12.7998 11.8009 12.7998C11.0109 12.7998 10.3705 14.066 10.3705 15.6281C10.3705 17.1901 11.0109 18.4564 11.8009 18.4564ZM21.4598 15.6281C21.4598 17.1901 20.8194 18.4564 20.0294 18.4564C19.2394 18.4564 18.599 17.1901 18.599 15.6281C18.599 14.066 19.2394 12.7998 20.0294 12.7998C20.8194 12.7998 21.4598 14.066 21.4598 15.6281Z" fill="white"/>
<path d="M21.0285 15.5152C21.5335 15.5152 21.9428 15.081 21.9428 14.5455C21.9428 14.0099 21.5335 13.5758 21.0285 13.5758C20.5236 13.5758 20.1143 14.0099 20.1143 14.5455C20.1143 15.081 20.5236 15.5152 21.0285 15.5152Z" fill="white"/>
<path d="M29.1933 16.9669C29.1933 18.9284 28.3987 20.5197 27.4181 20.5197C26.4375 20.5197 25.6428 18.9295 25.6428 16.9669C25.6428 15.0043 26.4375 13.4141 27.4181 13.4141C28.3987 13.4141 29.1933 15.0043 29.1933 16.9669Z" fill="white" stroke="white" stroke-width="2" stroke-miterlimit="10"/>
</svg>
