<svg width="32" height="32" viewBox="0 0 32 32" fill="none" xmlns="http://www.w3.org/2000/svg">
<path d="M24.6266 22.44L25.1466 26.6533C25.28 27.76 24.0933 28.5333 23.1466 27.96L18.5333 25.2133C18.2133 25.0267 18.1333 24.6267 18.3066 24.3067C18.9733 23.08 19.3333 21.6933 19.3333 20.3067C19.3333 15.4267 15.1466 11.4533 9.99998 11.4533C8.94665 11.4533 7.91998 11.6133 6.95998 11.9333C6.46665 12.0933 5.98665 11.64 6.10665 11.1333C7.31998 6.27999 11.9866 2.66666 17.56 2.66666C24.0666 2.66666 29.3333 7.58666 29.3333 13.6533C29.3333 17.2533 27.48 20.44 24.6266 22.44Z" fill="white"/>
<path d="M17.3333 20.3067C17.3333 21.8933 16.7466 23.36 15.76 24.52C14.44 26.12 12.3466 27.1467 9.99996 27.1467L6.51996 29.2133C5.93329 29.5733 5.18663 29.08 5.26663 28.4L5.59996 25.7733C3.81329 24.5333 2.66663 22.5467 2.66663 20.3067C2.66663 17.96 3.91996 15.8933 5.83996 14.6667C7.02663 13.8933 8.45329 13.4533 9.99996 13.4533C14.0533 13.4533 17.3333 16.52 17.3333 20.3067Z" fill="white"/>
</svg>
