<svg width="354" height="354" viewBox="0 0 354 354" fill="none" xmlns="http://www.w3.org/2000/svg">
<path d="M179.194 318.618C252.092 318.618 311.187 256.356 311.187 179.553C311.187 102.75 252.092 40.4883 179.194 40.4883C106.296 40.4883 47.2002 102.75 47.2002 179.553C47.2002 256.356 106.296 318.618 179.194 318.618Z" fill="white"/>
<path d="M227.5 162.47C232.317 162.47 236.507 166.57 239.89 170.805C246.099 178.575 250.062 172.537 247.173 163.02C243.836 152.025 236.283 149 227.5 149C217.772 149 209.553 152.711 206.9 166.851C205.78 172.822 210.268 175.55 214.057 170.8C217.28 166.759 221.221 162.47 227.5 162.47Z" fill="#1E1E1E"/>
<path d="M133.5 162.47C138.317 162.47 142.507 166.57 145.89 170.805C152.099 178.575 156.062 172.537 153.173 163.02C149.836 152.025 142.283 149 133.5 149C123.772 149 115.553 152.711 112.9 166.851C111.78 172.822 116.268 175.55 120.057 170.8C123.28 166.759 127.221 162.47 133.5 162.47Z" fill="#1E1E1E"/>
<path d="M73.8856 174.68C72.6355 201.8 59.2063 223.23 43.8858 222.524C28.5654 221.818 17.1637 199.259 18.4145 172.123C19.6652 144.986 33.0938 123.572 48.4142 124.278C63.7346 124.985 75.1364 147.543 73.8856 174.68Z" fill="#6D28D9"/>
<path d="M337.184 174.024C339.295 201.09 328.618 224.015 313.329 225.208C298.04 226.401 283.938 205.425 281.825 178.343C279.712 151.261 290.39 128.352 305.679 127.159C320.969 125.967 335.071 146.942 337.184 174.024Z" fill="#6D28D9"/>
<path d="M182.141 233.233C170.91 234.379 160.289 230.964 150.781 223.001C148.329 220.947 148.413 217.38 151.008 215.327C153.281 213.525 156.617 213.575 158.77 215.377C176 219 182.129 219.5 200.44 215.44C202.928 213.814 206.3 214.129 208.214 216.171C210.307 218.426 209.781 221.904 207.042 223.681C198.562 229.225 190.19 232.401 182.129 233.22L182.141 233.233Z" fill="black"/>
<path d="M119.285 123.58C128.007 120.488 136.936 120.02 145.672 122.279C147.925 122.861 149.372 123.875 147.627 125.565C145.981 127.164 133.797 125.123 124.137 127.871C113.326 130.946 105.596 137.857 102.897 136.83C100.898 136.058 102.251 133.401 104.152 131.83C110.029 126.942 113.036 125.801 119.297 123.584L119.285 123.58Z" fill="#333333"/>
<path d="M232.609 123.539C241.479 124.504 249.431 127.835 256.074 133.453C257.787 134.902 258.621 136.389 256.397 137.127C254.297 137.826 244.569 130.953 235.027 129.297C224.349 127.443 214.742 130.211 212.827 128.188C211.413 126.682 213.701 124.94 216.01 124.37C223.161 122.585 226.25 122.852 232.617 123.547L232.609 123.539Z" fill="#333333"/>
<path d="M208.708 52.3297C209.368 73.2227 226.995 83.8105 239.956 93.3764C244.529 96.7519 248.931 99.9269 253.229 99.7911C257.527 99.6553 261.72 96.2086 266.072 92.551C278.402 82.1858 295.325 70.5062 294.665 49.6132C294.005 28.72 269.897 14.6501 251.193 35.3477C231.218 15.8724 208.048 31.4365 208.708 52.3297Z" fill="#D14747"/>
<path d="M26.0803 269.301C29.3982 285.877 44.8721 291.967 56.4876 297.866C60.5865 299.947 64.5222 301.891 67.9321 301.209C71.342 300.526 74.2261 297.217 77.2082 293.718C85.6586 283.804 97.5963 272.227 94.2784 255.65C90.9605 239.074 69.8523 231.072 57.6982 250.08C39.1644 237.214 22.7624 252.724 26.0803 269.301Z" fill="#D14747"/>
<path d="M224.215 274.684C221.555 297.099 238.671 311.243 250.969 323.544C255.309 327.885 259.498 331.984 264.109 332.531C268.72 333.078 273.752 330.074 278.988 326.869C293.823 317.788 313.774 308.042 316.433 285.627C319.093 263.212 295.619 244.306 272.314 263.394C254.123 239.382 226.875 252.269 224.215 274.684Z" fill="#D14747"/>
<ellipse cx="109.5" cy="200" rx="17.5" ry="8" fill="#FCA5A5"/>
<ellipse cx="243.5" cy="200" rx="17.5" ry="8" fill="#FCA5A5"/>
</svg>
