<svg width="355" height="355" viewBox="0 0 355 355" fill="none" xmlns="http://www.w3.org/2000/svg">
<circle cx="180.5" cy="180.5" r="122.5" fill="black"/>
<path d="M142.1 171.14C147.69 171.14 152.21 166.34 152.21 160.41C152.21 154.48 147.68 149.68 142.1 149.68C136.52 149.68 131.99 154.48 131.99 160.41C131.99 166.34 136.52 171.14 142.1 171.14Z" fill="white"/>
<path d="M233.13 171.14C238.72 171.14 243.24 166.34 243.24 160.41C243.24 154.48 238.71 149.68 233.13 149.68C227.55 149.68 223.02 154.48 223.02 160.41C223.02 166.34 227.55 171.14 233.13 171.14Z" fill="white"/>
<path d="M122.1 200.14C127.69 200.14 132.21 195.34 132.21 189.41C132.21 183.48 127.68 178.68 122.1 178.68C116.52 178.68 111.99 183.48 111.99 189.41C111.99 195.34 116.52 200.14 122.1 200.14Z" fill="white"/>
<path d="M213.13 200.14C218.72 200.14 223.24 195.34 223.24 189.41C223.24 183.48 218.71 178.68 213.13 178.68C207.55 178.68 203.02 183.48 203.02 189.41C203.02 195.34 207.55 200.14 213.13 200.14Z" fill="white"/>
<path fill-rule="evenodd" clip-rule="evenodd" d="M179.69 319.12C252.59 319.12 311.68 256.86 311.68 180.05C311.68 103.24 252.59 40.99 179.69 40.99C106.79 40.99 47.7 103.25 47.7 180.05C47.7 256.85 106.8 319.12 179.69 319.12ZM177.04 225.21C188.27 224.06 198.89 227.48 208.4 235.44C210.85 237.49 210.77 241.06 208.17 243.11C205.9 244.91 202.56 244.86 200.41 243.06C188.1 232.74 174.38 232.73 158.74 243C156.25 244.63 152.88 244.31 150.97 242.27C148.88 240.01 149.4 236.54 152.14 234.76C160.62 229.22 168.99 226.04 177.05 225.22H177.04V225.21ZM146.87 172.39C146.87 189.67 139.79 203.68 131.05 203.68C122.31 203.68 115.23 189.67 115.23 172.39C115.23 155.11 122.31 141.1 131.05 141.1C139.79 141.1 146.87 155.11 146.87 172.39ZM222.07 203.67C230.81 203.67 237.89 189.66 237.89 172.38C237.89 155.1 230.81 141.09 222.07 141.09C213.33 141.09 206.25 155.1 206.25 172.38C206.25 189.66 213.33 203.67 222.07 203.67Z" fill="white"/>
<path d="M74.39 175.18C73.14 202.3 59.71 223.73 44.39 223.02C29.07 222.31 17.67 199.76 18.92 172.62C20.17 145.48 33.6 124.07 48.92 124.77C64.24 125.48 75.64 148.03 74.39 175.17V175.18Z" fill="#6D28D9"/>
<path d="M337.68 174.52C339.79 201.59 329.11 224.51 313.83 225.7C298.54 226.89 284.44 205.92 282.33 178.84C280.22 151.76 290.9 128.85 306.18 127.66C321.47 126.47 335.57 147.44 337.69 174.53L337.68 174.52Z" fill="#6D28D9"/>
<path d="M118.5 197C120.5 202 135.8 207.4 141 197" stroke="#0EA5E9" stroke-width="6" stroke-linecap="round"/>
<path d="M210.5 197C212.5 202 227.8 207.4 233 197" stroke="#0EA5E9" stroke-width="6" stroke-linecap="round"/>
<path fill-rule="evenodd" clip-rule="evenodd" d="M110.536 209C108.711 209.225 107.479 211.625 105.247 215.311C103.533 218.314 101.542 222.108 99.6153 225.74C94.9841 235.028 88.9173 244.495 96.8366 251.3C101.162 254.393 107.674 256.11 112.814 254.195C121.271 250.779 117.103 236.79 115.991 228.977C115.259 224.787 114.546 220.526 113.87 217.091C112.87 212.56 112.37 209.476 110.591 209.009H110.554L110.536 209Z" fill="#0EA5E9"/>
<path d="M238.255 122.357C246.122 126.566 252.254 132.626 256.317 140.32C257.365 142.304 257.583 143.994 255.244 143.848C253.035 143.712 246.579 133.702 238.347 128.601C229.134 122.893 219.189 121.871 218.168 119.28C217.419 117.354 220.193 116.593 222.547 116.927C229.847 117.942 232.613 119.345 238.259 122.368L238.255 122.357Z" fill="#333333"/>
<path d="M111.543 123.033C119.157 117.773 127.654 114.992 136.677 114.894C139.003 114.868 140.665 115.469 139.422 117.557C138.249 119.529 125.955 120.737 117.346 125.909C107.712 131.698 102.053 140.386 99.1783 140.099C97.0472 139.876 97.6607 136.957 99.0856 134.945C103.485 128.693 106.09 126.808 111.555 123.034L111.543 123.033Z" fill="#333333"/>
</svg>
