<svg width="354" height="354" viewBox="0 0 354 354" fill="none" xmlns="http://www.w3.org/2000/svg">
<path d="M179.194 318.618C252.092 318.618 311.187 256.356 311.187 179.553C311.187 102.75 252.092 40.4883 179.194 40.4883C106.296 40.4883 47.2002 102.75 47.2002 179.553C47.2002 256.356 106.296 318.618 179.194 318.618Z" fill="white"/>
<path d="M73.8856 174.68C72.6355 201.8 59.2063 223.23 43.8858 222.524C28.5654 221.818 17.1637 199.259 18.4145 172.123C19.6652 144.986 33.0938 123.572 48.4142 124.278C63.7346 124.985 75.1364 147.543 73.8856 174.68Z" fill="#6D28D9"/>
<path d="M337.184 174.024C339.295 201.09 328.618 224.015 313.329 225.208C298.04 226.401 283.938 205.425 281.825 178.343C279.712 151.261 290.39 128.352 305.679 127.159C320.969 125.967 335.071 146.942 337.184 174.024Z" fill="#6D28D9"/>
<ellipse cx="109.5" cy="200" rx="17.5" ry="8" fill="#FCA5A5"/>
<ellipse cx="243.5" cy="200" rx="17.5" ry="8" fill="#FCA5A5"/>
<path d="M137.401 186.498C134.886 187.102 132.317 187.456 129.715 187.536C117.413 187.91 106.772 182.287 99.7858 171.93C97.9768 169.246 99.5192 166.697 103 165.303C105.962 164.117 109.317 163.916 110.862 166.198C115.655 173.239 122.476 177.069 130.115 176.833C137.826 176.6 145.347 172.285 150.63 165.303C152.391 162.973 155.776 161.95 158.63 162.946C162.096 164.165 163.262 167.787 161.109 170.623C155.054 178.642 146.619 184.272 137.391 186.494L137.401 186.498Z" fill="#231F20"/>
<path d="M232.401 186.468C229.886 187.072 227.317 187.426 224.715 187.506C212.413 187.88 201.772 182.257 194.786 171.9C192.977 169.216 194.498 165.623 197.979 164.229C200.941 163.043 204.317 163.886 205.862 166.168C210.655 173.209 217.476 177.039 225.115 176.803C232.826 176.57 240.347 172.255 245.63 165.273C247.391 162.943 250.647 162.975 253.5 163.97C256.967 165.19 258.262 167.757 256.109 170.593C250.054 178.612 241.619 184.242 232.391 186.464L232.401 186.468Z" fill="#231F20"/>
<path d="M181.725 235.821C172.353 236.868 163.333 233.499 155.13 225.732C153.014 223.724 152.971 220.278 155.084 218.301C156.933 216.565 159.738 216.634 161.595 218.398C172.229 228.46 183.72 228.554 196.515 218.702C198.545 217.147 201.388 217.463 203.05 219.461C204.876 221.662 204.546 225.019 202.302 226.729C195.37 232.042 188.453 235.069 181.715 235.822L181.725 235.821Z" fill="#231F20"/>
<path d="M177.955 74C178.468 74 178.97 74.1867 179.46 74.56C179.973 74.9333 180.23 75.435 180.23 76.065C180.23 76.5083 180.067 76.9517 179.74 77.395L166.335 94.615L165.915 94.475H177.605C178.212 94.475 178.713 94.6617 179.11 95.035C179.53 95.385 179.74 95.8633 179.74 96.47C179.74 97.0533 179.53 97.5433 179.11 97.94C178.713 98.3133 178.212 98.5 177.605 98.5H162.24C161.633 98.5 161.108 98.29 160.665 97.87C160.222 97.4267 160 96.9483 160 96.435C160 95.9917 160.163 95.5483 160.49 95.105L173.93 77.815L174.245 78.025H163.64C163.033 78.025 162.52 77.8383 162.1 77.465C161.703 77.0917 161.505 76.6017 161.505 75.995C161.505 75.3883 161.703 74.91 162.1 74.56C162.52 74.1867 163.033 74 163.64 74H177.955Z" fill="#6D28D9"/>
<path d="M172.955 76C173.468 76 173.97 76.1867 174.46 76.56C174.973 76.9333 175.23 77.435 175.23 78.065C175.23 78.5083 175.067 78.9517 174.74 79.395L161.335 96.615L160.915 96.475H172.605C173.212 96.475 173.713 96.6617 174.11 97.035C174.53 97.385 174.74 97.8633 174.74 98.47C174.74 99.0533 174.53 99.5433 174.11 99.94C173.713 100.313 173.212 100.5 172.605 100.5H157.24C156.633 100.5 156.108 100.29 155.665 99.87C155.222 99.4267 155 98.9483 155 98.435C155 97.9917 155.163 97.5483 155.49 97.105L168.93 79.815L169.245 80.025H158.64C158.033 80.025 157.52 79.8383 157.1 79.465C156.703 79.0917 156.505 78.6017 156.505 77.995C156.505 77.3883 156.703 76.91 157.1 76.56C157.52 76.1867 158.033 76 158.64 76H172.955Z" fill="#6D28D9" fill-opacity="0.16"/>
<path d="M217.085 98C217.745 98 218.39 98.24 219.02 98.72C219.68 99.2 220.01 99.845 220.01 100.655C220.01 101.225 219.8 101.795 219.38 102.365L202.145 124.505L201.605 124.325H216.635C217.415 124.325 218.06 124.565 218.57 125.045C219.11 125.495 219.38 126.11 219.38 126.89C219.38 127.64 219.11 128.27 218.57 128.78C218.06 129.26 217.415 129.5 216.635 129.5H196.88C196.1 129.5 195.425 129.23 194.855 128.69C194.285 128.12 194 127.505 194 126.845C194 126.275 194.21 125.705 194.63 125.135L211.91 102.905L212.315 103.175H198.68C197.9 103.175 197.24 102.935 196.7 102.455C196.19 101.975 195.935 101.345 195.935 100.565C195.935 99.785 196.19 99.17 196.7 98.72C197.24 98.24 197.9 98 198.68 98H217.085Z" fill="#6D28D9"/>
<path d="M210.085 100C210.745 100 211.39 100.24 212.02 100.72C212.68 101.2 213.01 101.845 213.01 102.655C213.01 103.225 212.8 103.795 212.38 104.365L195.145 126.505L194.605 126.325H209.635C210.415 126.325 211.06 126.565 211.57 127.045C212.11 127.495 212.38 128.11 212.38 128.89C212.38 129.64 212.11 130.27 211.57 130.78C211.06 131.26 210.415 131.5 209.635 131.5H189.88C189.1 131.5 188.425 131.23 187.855 130.69C187.285 130.12 187 129.505 187 128.845C187 128.275 187.21 127.705 187.63 127.135L204.91 104.905L205.315 105.175H191.68C190.9 105.175 190.24 104.935 189.7 104.455C189.19 103.975 188.935 103.345 188.935 102.565C188.935 101.785 189.19 101.17 189.7 100.72C190.24 100.24 190.9 100 191.68 100H210.085Z" fill="#6D28D9" fill-opacity="0.16"/>
<path d="M264.832 56C265.771 56 266.688 56.3413 267.584 57.024C268.523 57.7067 268.992 58.624 268.992 59.776C268.992 60.5867 268.693 61.3973 268.096 62.208L243.584 93.696L242.816 93.44H264.192C265.301 93.44 266.219 93.7813 266.944 94.464C267.712 95.104 268.096 95.9787 268.096 97.088C268.096 98.1547 267.712 99.0507 266.944 99.776C266.219 100.459 265.301 100.8 264.192 100.8H236.096C234.987 100.8 234.027 100.416 233.216 99.648C232.405 98.8373 232 97.9627 232 97.024C232 96.2133 232.299 95.4027 232.896 94.592L257.472 62.976L258.048 63.36H238.656C237.547 63.36 236.608 63.0187 235.84 62.336C235.115 61.6533 234.752 60.7573 234.752 59.648C234.752 58.5387 235.115 57.664 235.84 57.024C236.608 56.3413 237.547 56 238.656 56H264.832Z" fill="#6D28D9"/>
<path d="M257.832 59C258.771 59 259.688 59.3413 260.584 60.024C261.523 60.7067 261.992 61.624 261.992 62.776C261.992 63.5867 261.693 64.3973 261.096 65.208L236.584 96.696L235.816 96.44H257.192C258.301 96.44 259.219 96.7813 259.944 97.464C260.712 98.104 261.096 98.9787 261.096 100.088C261.096 101.155 260.712 102.051 259.944 102.776C259.219 103.459 258.301 103.8 257.192 103.8H229.096C227.987 103.8 227.027 103.416 226.216 102.648C225.405 101.837 225 100.963 225 100.024C225 99.2133 225.299 98.4027 225.896 97.592L250.472 65.976L251.048 66.36H231.656C230.547 66.36 229.608 66.0187 228.84 65.336C228.115 64.6533 227.752 63.7573 227.752 62.648C227.752 61.5387 228.115 60.664 228.84 60.024C229.608 59.3413 230.547 59 231.656 59H257.832Z" fill="#6D28D9" fill-opacity="0.16"/>
</svg>
